<?xml version="1.0" encoding="iso-8859-1"?>
<!-- Generator: Adobe Illustrator 19.1.0, SVG Export Plug-In . SVG Version: 6.00 Build 0)  -->
<svg version="1.1" id="Capa_1" xmlns="http://www.w3.org/2000/svg" xmlns:xlink="http://www.w3.org/1999/xlink" x="0px" y="0px"
	 viewBox="0 0 476.051 476.051" style="enable-background:new 0 0 476.051 476.051;" xml:space="preserve">
<g id="XMLID_9_">
	<g>
		<polygon style="fill:#4D4D4D;" points="89.01,261.433 57.01,326.063 31.31,334.743 14.99,286.423 		"/>
		<polygon style="fill:#4D4D4D;" points="217.62,218.003 185.62,282.633 141.42,297.553 173.42,232.923 		"/>
		<polygon style="fill:#4D4D4D;" points="346.24,174.573 314.24,239.193 270.04,254.123 302.03,189.493 		"/>
		<polygon style="fill:#4D4D4D;" points="444.75,141.303 461.06,189.613 398.65,210.693 430.65,146.063 		"/>
		<polygon style="fill:#4D4D4D;" points="461.06,286.433 444.74,334.743 419.05,326.063 387.05,261.433 		"/>
		<polygon style="fill:#4D4D4D;" points="312.78,253.413 334.64,297.553 290.43,282.633 281.24,264.063 		"/>
		<polygon style="fill:#4D4D4D;" points="174.02,189.493 186.54,214.773 154.99,225.433 129.82,174.573 		"/>
		<polygon style="fill:#4D4D4D;" points="45.41,146.073 77.4,210.693 14.99,189.613 31.31,141.313 		"/>
		<polygon style="fill:#EAC93F;" points="156,238.813 124,303.433 74.43,320.173 106.43,255.553 		"/>
		<polygon style="fill:#EAC93F;" points="284.61,195.383 252.62,260.003 203.04,276.743 235.04,212.123 		"/>
		<polygon style="fill:#EAC93F;" points="413.23,151.943 381.23,216.573 331.66,233.313 363.65,168.683 		"/>
		<polygon style="fill:#EAC93F;" points="369.63,255.553 401.63,320.183 352.05,303.443 325.21,249.213 338.03,244.883 		"/>
		<polygon style="fill:#EAC93F;" points="268.81,268.263 273.01,276.743 258.35,271.793 		"/>
		<polygon style="fill:#EAC93F;" points="217.71,204.253 198.96,210.583 191.44,195.383 		"/>
		<polygon style="fill:#EAC93F;" points="112.4,168.693 142.57,229.623 138.02,231.163 94.82,216.573 62.82,151.953 		"/>
		<path style="fill:#333333;" d="M475.46,191.613c0.55,1.64,0.43,3.42-0.34,4.97c-0.76,1.54-2.11,2.72-3.74,3.27l-113.03,38.17
			l113.03,38.17c1.63,0.55,2.98,1.73,3.75,3.27c0.76,1.55,0.88,3.33,0.33,4.97l-20.48,60.63c-0.92,2.71-3.45,4.42-6.16,4.42
			c-0.69,0-1.39-0.11-2.08-0.34l-208.71-70.49l-208.72,70.48c-0.68,0.23-1.38,0.34-2.08,0.34c-0.99,0-1.98-0.22-2.89-0.67
			c-1.54-0.77-2.72-2.11-3.27-3.75L0.6,284.423c-0.55-1.63-0.43-3.41,0.33-4.96c0.77-1.54,2.11-2.72,3.75-3.27l113.03-38.17
			L4.67,199.853c-1.63-0.56-2.98-1.73-3.74-3.28c-0.77-1.54-0.89-3.33-0.34-4.96l20.48-60.62c1.15-3.4,4.84-5.23,8.24-4.08
			l208.72,70.48l208.71-70.48c3.41-1.15,7.09,0.67,8.24,4.07L475.46,191.613z M461.06,189.613l-16.31-48.31l-14.1,4.76l-32,64.63
			L461.06,189.613z M444.74,334.743l16.32-48.31l-74.01-25l32,64.63L444.74,334.743z M381.23,216.573l32-64.63l-49.58,16.74
			l-31.99,64.63L381.23,216.573z M401.63,320.183l-32-64.63l-31.6-10.67l-12.82,4.33l26.84,54.23L401.63,320.183z M314.24,239.193
			l32-64.62l-44.21,14.92l-31.99,64.63L314.24,239.193z M334.64,297.553l-21.86-44.14l-31.54,10.65l9.19,18.57L334.64,297.553z
			 M252.62,260.003l31.99-64.62l-49.57,16.74l-32,64.62L252.62,260.003z M273.01,276.743l-4.2-8.48l-10.46,3.53L273.01,276.743z
			 M198.96,210.583l18.75-6.33l-26.27-8.87L198.96,210.583z M185.62,282.633l32-64.63l-44.2,14.92l-32,64.63L185.62,282.633z
			 M186.54,214.773l-12.52-25.28l-44.2-14.92l25.17,50.86L186.54,214.773z M124,303.433l32-64.62l-49.57,16.74l-32,64.62
			L124,303.433z M142.57,229.623l-30.17-60.93l-49.58-16.74l32,64.62l43.2,14.59L142.57,229.623z M57.01,326.063l32-64.63
			l-74.02,24.99l16.32,48.32L57.01,326.063z M77.4,210.693l-31.99-64.62l-14.1-4.76l-16.32,48.3L77.4,210.693z"/>
	</g>
	<g>
	</g>
</g>
<g>
</g>
<g>
</g>
<g>
</g>
<g>
</g>
<g>
</g>
<g>
</g>
<g>
</g>
<g>
</g>
<g>
</g>
<g>
</g>
<g>
</g>
<g>
</g>
<g>
</g>
<g>
</g>
<g>
</g>
</svg>
